<svg width="82" height="96" viewBox="0 0 82 96" fill="none" xmlns="http://www.w3.org/2000/svg">
<rect x="38.5" y="40.9727" width="5" height="5" rx="1.16124" fill="#3C3731"/>
<path d="M79.0532 79.0298V40.9719C79.0532 19.9531 62.0141 2.91406 40.9954 2.91406V2.91406C19.9766 2.91406 2.9375 19.9531 2.9375 40.9719V79.0298" stroke="#3C3731" stroke-width="5"/>
<path d="M69.5399 69.5155V40.9721C69.5399 25.208 56.7606 12.4287 40.9965 12.4287V12.4287C25.2324 12.4287 12.4531 25.208 12.4531 40.9721V69.5155" stroke="#3C3731" stroke-width="5"/>
<path d="M60.0266 60.0012V40.9723C60.0266 30.4629 51.5071 21.9434 40.9977 21.9434V21.9434C30.4883 21.9434 21.9688 30.4629 21.9688 40.9723V60.0012" stroke="#3C3731" stroke-width="5"/>
<path d="M50.5094 50.486V40.9715C50.5094 35.7168 46.2496 31.457 40.9949 31.457V31.457C35.7402 31.457 31.4805 35.7168 31.4805 40.9715V50.486" stroke="#3C3731" stroke-width="5"/>
<path d="M0.683594 82.6592H5.91162C6.94652 82.6592 7.71675 82.7038 8.2223 82.793C8.7338 82.8763 9.1888 83.0547 9.5873 83.3283C9.99174 83.6019 10.3278 83.9677 10.5954 84.4256C10.8631 84.8777 10.9969 85.3862 10.9969 85.9512C10.9969 86.5638 10.8304 87.1259 10.4973 87.6374C10.1702 88.1489 9.7241 88.5325 9.15906 88.7883C9.95606 89.0202 10.5687 89.4158 10.9969 89.9748C11.4251 90.5339 11.6393 91.1912 11.6393 91.9465C11.6393 92.5413 11.4995 93.1212 11.2199 93.6862C10.9463 94.2453 10.5687 94.6943 10.0869 95.0334C9.61109 95.3664 9.02227 95.5716 8.32044 95.649C7.88031 95.6965 6.81864 95.7263 5.13545 95.7382H0.683594V82.6592ZM3.32437 84.836V87.8604H5.05515C6.0841 87.8604 6.72348 87.8456 6.97329 87.8158C7.42531 87.7623 7.7792 87.6077 8.03495 87.3519C8.29665 87.0902 8.4275 86.7482 8.4275 86.3259C8.4275 85.9215 8.31449 85.5944 8.08848 85.3446C7.86841 85.0888 7.53832 84.9342 7.09819 84.8806C6.83649 84.8509 6.0841 84.836 4.84104 84.836H3.32437ZM3.32437 90.0373V93.5345H5.76888C6.72051 93.5345 7.3242 93.5078 7.57995 93.4543C7.9725 93.3829 8.2907 93.2104 8.53456 92.9368C8.78436 92.6573 8.90926 92.2855 8.90926 91.8216C8.90926 91.4291 8.8141 91.096 8.62377 90.8224C8.43345 90.5488 8.15688 90.3496 7.79407 90.2247C7.43721 90.0998 6.65806 90.0373 5.45662 90.0373H3.32437Z" fill="#3C3731"/>
<path d="M25.6728 95.7382H22.8001L21.6582 92.7673H16.4301L15.3506 95.7382H12.5493L17.6435 82.6592H20.4359L25.6728 95.7382ZM20.8106 90.5637L19.0085 85.7103L17.242 90.5637H20.8106Z" fill="#3C3731"/>
<path d="M27.0468 95.7382V82.6592H30.999L33.3721 91.5807L35.7185 82.6592H39.6797V95.7382H37.2263V85.4427L34.6301 95.7382H32.0874L29.5002 85.4427V95.7382H27.0468Z" fill="#3C3731"/>
<path d="M42.2223 95.7382V82.6592H44.8631V95.7382H42.2223Z" fill="#3C3731"/>
<path d="M50.8227 95.7382V90.2336L46.0318 82.6592H49.1276L52.2055 87.8337L55.221 82.6592H58.2633L53.4546 90.2514V95.7382H50.8227Z" fill="#3C3731"/>
<path d="M69.6918 95.7382H66.819L65.6771 92.7673H60.4491L59.3695 95.7382H56.5682L61.6624 82.6592H64.4548L69.6918 95.7382ZM64.8295 90.5637L63.0274 85.7103L61.2609 90.5637H64.8295Z" fill="#3C3731"/>
<path d="M71.1281 95.7382V82.6592H73.6975L79.0505 91.3934V82.6592H81.5039V95.7382H78.8542L73.5816 87.2092V95.7382H71.1281Z" fill="#3C3731"/>
</svg>
