<svg width="82" height="96" viewBox="0 0 82 96" fill="none" xmlns="http://www.w3.org/2000/svg">
<g clip-path="url(#clip0_505_199)">
<path d="M42.3388 40.9727H39.6612C39.0199 40.9727 38.5 41.4926 38.5 42.1339V44.8114C38.5 45.4528 39.0199 45.9727 39.6612 45.9727H42.3388C42.9801 45.9727 43.5 45.4528 43.5 44.8114V42.1339C43.5 41.4926 42.9801 40.9727 42.3388 40.9727Z" fill="#3C3731"/>
<path d="M79.0532 79.0298V40.9719C79.0532 19.9531 62.0141 2.91406 40.9954 2.91406C19.9766 2.91406 2.9375 19.9531 2.9375 40.9719V79.0298" stroke="#3C3731" stroke-width="5"/>
<path d="M69.5399 69.5155V40.9721C69.5399 25.208 56.7606 12.4287 40.9965 12.4287C25.2324 12.4287 12.4531 25.208 12.4531 40.9721V69.5155" stroke="#3C3731" stroke-width="5"/>
<path d="M60.0266 60.0012V40.9723C60.0266 30.4629 51.5071 21.9434 40.9977 21.9434C30.4882 21.9434 21.9688 30.4629 21.9688 40.9723V60.0012" stroke="#3C3731" stroke-width="5"/>
<path d="M50.5094 50.486V40.9715C50.5094 35.7168 46.2496 31.457 40.9949 31.457C35.7402 31.457 31.4805 35.7168 31.4805 40.9715V50.486" stroke="#3C3731" stroke-width="5"/>
<path d="M3.60785 87.9121V84.6797H6.45319C6.72417 84.6797 6.98225 84.7055 7.22743 84.7571C7.48551 84.7958 7.71133 84.8732 7.90489 84.9894C8.09845 85.1055 8.2533 85.2668 8.36943 85.4733C8.48557 85.6797 8.54364 85.9443 8.54364 86.2669C8.54364 86.8475 8.36943 87.2669 8.02102 87.525C7.67262 87.7831 7.22743 87.9121 6.68546 87.9121H3.60785ZM0.568963 82.3182V96.1384H7.26614C7.88553 96.1384 8.48557 96.061 9.06625 95.9062C9.65983 95.7513 10.1824 95.5126 10.6341 95.19C11.0986 94.8674 11.4664 94.4545 11.7374 93.9512C12.0084 93.435 12.1439 92.8286 12.1439 92.1317C12.1439 91.2672 11.9309 90.5316 11.5051 89.9252C11.0922 89.3058 10.4599 88.8735 9.60822 88.6283C10.2276 88.3315 10.6922 87.9508 11.0018 87.4863C11.3244 87.0218 11.4857 86.4411 11.4857 85.7443C11.4857 85.0991 11.3761 84.5571 11.1567 84.1184C10.9502 83.6796 10.6534 83.3312 10.2663 83.0731C9.8792 82.8021 9.41466 82.6086 8.87269 82.4924C8.33072 82.3763 7.73068 82.3182 7.07258 82.3182H0.568963ZM3.60785 93.777V89.9832H6.91773C7.57584 89.9832 8.1049 90.1381 8.50492 90.4478C8.90495 90.7446 9.10496 91.2478 9.10496 91.9575C9.10496 92.3188 9.04044 92.6156 8.9114 92.8479C8.79526 93.0802 8.63396 93.2673 8.4275 93.4092C8.22104 93.5383 7.98231 93.6351 7.71133 93.6996C7.44034 93.7512 7.15646 93.777 6.85966 93.777H3.60785ZM17.6816 90.7962L19.4817 85.7249H19.5205L21.2625 90.7962H17.6816ZM17.972 82.3182L12.7459 96.1384H15.8041L16.888 93.0608H22.0561L23.1013 96.1384H26.2563L21.0883 82.3182H17.972ZM27.4481 82.3182V96.1384H30.2934V86.4411H30.3321L33.7194 96.1384H36.0615L39.4488 86.3443H39.4875V96.1384H42.3329V82.3182H38.0552L34.9969 91.822H34.9582L31.7258 82.3182H27.4481ZM48.5892 90.7575V96.1384H51.6281V90.8349L56.7575 82.3182H53.3702L50.1571 87.7766L46.9246 82.3182H43.518L48.5892 90.7575ZM59.9662 90.7962L61.7663 85.7249H61.805L63.547 90.7962H59.9662ZM60.2565 82.3182L55.0304 96.1384H58.0886L59.1726 93.0608H64.3406L65.3859 96.1384H68.5409L63.3728 82.3182H60.2565ZM69.7326 82.3182V96.1384H72.578V86.8863H72.6167L78.3654 96.1384H81.4043V82.3182H78.559V91.5898H78.5203L72.7522 82.3182H69.7326Z" fill="#3C3731"/>
</g>
<defs>
<clipPath id="clip0_505_199">
<rect width="82" height="96" fill="white"/>
</clipPath>
</defs>
</svg>
