<svg width="500" height="500" viewBox="0 0 500 500" fill="none" xmlns="http://www.w3.org/2000/svg">
<rect width="500" height="500" fill="#7F7769"/>
<path d="M260.732 111.165C262.626 111.165 263.889 109.902 263.889 108.008V85.9125C263.889 84.0186 262.626 82.756 260.732 82.756H238.637C236.743 82.756 235.48 84.0186 235.48 85.9125V108.008C235.48 109.902 236.743 111.165 238.637 111.165H260.732ZM238.637 152.199C240.53 152.199 241.793 150.937 241.793 149.043V126.947C241.793 125.053 240.53 123.791 238.637 123.791H216.541C214.647 123.791 213.384 125.053 213.384 126.947V149.043C213.384 150.937 214.647 152.199 216.541 152.199H238.637ZM257.576 149.043C257.576 150.937 258.838 152.199 260.732 152.199H282.828C284.722 152.199 285.984 150.937 285.984 149.043V126.947C285.984 125.053 284.722 123.791 282.828 123.791H260.732C258.838 123.791 257.576 125.053 257.576 126.947V149.043ZM410.982 246.895H89.018V152.199H60.6095V310.025C60.6095 351.059 82.705 373.155 123.74 373.155H376.26C417.295 373.155 439.391 351.059 439.391 310.025V152.199H410.982V246.895Z" fill="#3C3731"/>
</svg>
