<svg width="500" height="500" viewBox="0 0 500 500" fill="none" xmlns="http://www.w3.org/2000/svg">
<rect width="500" height="500" fill="#7F7769"/>
<path d="M376.26 215.87C376.26 133.801 319.443 89.6095 236.111 89.6095H187.501V118.018H236.111C305.555 118.018 342.801 151.477 347.852 215.87H264.52C174.875 215.87 123.74 252.485 123.74 342.13C123.74 424.199 167.931 468.391 250 468.391H313.13V342.13H152.78C152.78 267.637 190.658 244.278 264.52 244.278H376.26V215.87ZM251.263 280.894C249.369 280.894 248.106 282.157 248.106 284.05V306.146C248.106 308.04 249.369 309.303 251.263 309.303H273.358C275.252 309.303 276.515 308.04 276.515 306.146V284.05C276.515 282.157 275.252 280.894 273.358 280.894H251.263Z" fill="#3C3731"/>
</svg>
