<svg width="500" height="500" viewBox="0 0 500 500" fill="none" xmlns="http://www.w3.org/2000/svg">
<rect width="500" height="500" fill="#7F7769"/>
<path d="M273.358 59.307C275.252 59.307 276.515 58.0444 276.515 56.1505V34.0549C276.515 32.161 275.252 30.8984 273.358 30.8984H251.263C249.369 30.8984 248.106 32.161 248.106 34.0549V56.1505C248.106 58.0444 249.369 59.307 251.263 59.307H273.358ZM376.26 244.278V215.87C376.26 133.801 319.443 89.6095 236.111 89.6095H187.501V118.018H236.111C305.555 118.018 342.801 151.477 347.852 215.87H264.52C174.875 215.87 123.74 252.485 123.74 342.13C123.74 424.199 167.931 468.391 250 468.391H313.13V342.13H152.78C152.78 267.637 190.658 244.278 264.52 244.278H376.26Z" fill="#3C3731"/>
</svg>
