<svg width="500" height="500" viewBox="0 0 500 500" fill="none" xmlns="http://www.w3.org/2000/svg">
<rect width="500" height="500" fill="#7F7769"/>
<path d="M298.926 119.963C298.926 121.857 300.188 123.119 302.082 123.119H324.178C326.072 123.119 327.334 121.857 327.334 119.963V97.8673C327.334 95.9734 326.072 94.7108 324.178 94.7108H302.082C300.188 94.7108 298.926 95.9734 298.926 97.8673V119.963ZM298.926 297.99C298.926 330.818 282.512 346.6 249.684 346.6C216.857 346.6 201.074 330.818 201.074 297.99V280.945H172.666V297.99C172.666 346.6 201.074 375.64 249.684 375.64C298.295 375.64 327.334 346.6 327.334 297.99V154.684H298.926V297.99Z" fill="#3C3731"/>
</svg>
