<svg width="500" height="500" viewBox="0 0 500 500" fill="none" xmlns="http://www.w3.org/2000/svg">
<rect width="500" height="500" fill="#7F7769"/>
<path d="M383.205 52.7484C385.098 52.7484 386.361 51.4858 386.361 49.5919V27.4964C386.361 25.6025 385.098 24.3398 383.205 24.3398H361.109C359.215 24.3398 357.953 25.6025 357.953 27.4964V49.5919C357.953 51.4858 359.215 52.7484 361.109 52.7484H383.205ZM361.109 93.7831C363.003 93.7831 364.266 92.5204 364.266 90.6265V68.531C364.266 66.6371 363.003 65.3745 361.109 65.3745H339.013C337.12 65.3745 335.857 66.6371 335.857 68.531V90.6265C335.857 92.5204 337.12 93.7831 339.013 93.7831H361.109ZM380.048 90.6265C380.048 92.5204 381.311 93.7831 383.205 93.7831H405.3C407.194 93.7831 408.457 92.5204 408.457 90.6265V68.531C408.457 66.6371 407.194 65.3745 405.3 65.3745H383.205C381.311 65.3745 380.048 66.6371 380.048 68.531V90.6265ZM464.643 220.043H386.992V133.555H358.584V220.043H259.469V149.338H231.061V316.001H35.3573V220.043H6.94873V346.304C6.94873 428.373 51.1398 472.564 133.209 472.564C215.278 472.564 259.469 428.373 259.469 346.304V316.001C268.939 335.572 287.878 346.304 316.287 346.304C344.695 346.304 363.634 335.572 373.104 316.001C382.573 335.572 401.512 346.304 429.921 346.304C470.956 346.304 493.051 324.208 493.051 283.174V117.141H464.643V220.043Z" fill="#3C3731"/>
</svg>
