<svg width="500" height="500" viewBox="0 0 500 500" fill="none" xmlns="http://www.w3.org/2000/svg">
<rect width="500" height="500" fill="#7F7769"/>
<path d="M373.417 94.8136C375.311 94.8136 376.574 93.551 376.574 91.6571V69.5615C376.574 67.6676 375.311 66.405 373.417 66.405H351.322C349.428 66.405 348.165 67.6676 348.165 69.5615V91.6571C348.165 93.551 349.428 94.8136 351.322 94.8136H373.417ZM253.47 189.509V126.379H225.061V317.032H29.3578V221.074H0.949249V347.334C0.949249 429.404 45.1404 473.595 127.21 473.595C209.279 473.595 253.47 429.404 253.47 347.334V318.294C262.939 337.234 281.879 347.334 309.656 347.334H435.916C476.951 347.334 499.046 325.239 499.046 284.204V221.074C499.678 137.111 431.497 104.283 343.746 146.58L253.47 189.509ZM356.372 171.832C424.553 139.005 471.269 158.575 471.269 221.074H253.47L356.372 171.832Z" fill="#3C3731"/>
</svg>
