<svg width="500" height="500" viewBox="0 0 500 500" fill="none" xmlns="http://www.w3.org/2000/svg">
<rect width="500" height="500" fill="#7F7769"/>
<path d="M172.979 281.565V60.6094H144.57V313.13H81.4402V439.39H355.425C396.46 439.39 418.555 417.295 418.555 376.26V313.13C419.187 229.167 351.006 196.339 263.255 238.636L172.979 281.565ZM281.563 186.87C283.457 186.87 284.719 185.607 284.719 183.713V161.618C284.719 159.724 283.457 158.461 281.563 158.461H259.467C257.573 158.461 256.311 159.724 256.311 161.618V183.713C256.311 185.607 257.573 186.87 259.467 186.87H281.563ZM172.979 313.13L275.881 263.889C344.062 231.061 390.778 250.631 390.778 313.13H172.979Z" fill="#3C3731"/>
</svg>
