<svg width="500" height="500" viewBox="0 0 500 500" fill="none" xmlns="http://www.w3.org/2000/svg">
<rect width="500" height="500" fill="#7F7769"/>
<path d="M320.706 66.9225C322.6 66.9225 323.862 65.6599 323.862 63.766V41.6704C323.862 39.7765 322.6 38.5139 320.706 38.5139H298.61C296.716 38.5139 295.454 39.7765 295.454 41.6704V63.766C295.454 65.6599 296.716 66.9225 298.61 66.9225H320.706ZM376.26 83.9677C294.191 83.9677 250 128.159 250 209.597C169.193 213.385 123.74 250.631 123.74 335.226C123.74 417.295 167.931 461.486 250 461.486H313.13V335.226H152.78C152.78 260.732 190.658 237.374 264.52 237.374H376.26V208.965H278.409C278.409 143.941 309.974 112.376 376.26 112.376V83.9677Z" fill="#3C3731"/>
</svg>
