<svg width="500" height="500" viewBox="0 0 500 500" fill="none" xmlns="http://www.w3.org/2000/svg">
<rect width="500" height="500" fill="#7F7769"/>
<path d="M386.993 58.8139C388.887 58.8139 390.149 57.5512 390.149 55.6574V33.5618C390.149 31.6679 388.887 30.4053 386.993 30.4053H364.897C363.003 30.4053 361.741 31.6679 361.741 33.5618V55.6574C361.741 57.5512 363.003 58.8139 364.897 58.8139H386.993ZM376.261 90.379C335.226 90.379 313.13 112.474 313.13 153.509V216.639C313.13 257.674 335.226 279.77 376.261 279.77C390.149 279.77 401.513 277.244 410.982 272.194V311.335H89.0182V216.639H60.6096V374.465C60.6096 415.499 82.7052 437.595 123.74 437.595H376.261C417.295 437.595 439.391 415.499 439.391 374.465V153.509C439.391 112.474 417.295 90.379 376.261 90.379ZM341.539 153.509C341.539 128.257 351.008 118.788 376.261 118.788C401.513 118.788 410.982 128.257 410.982 153.509V216.639H341.539V153.509Z" fill="#3C3731"/>
</svg>
