<svg width="500" height="500" viewBox="0 0 500 500" fill="none" xmlns="http://www.w3.org/2000/svg">
<rect width="500" height="500" fill="#7F7769"/>
<path d="M301.767 58.8138C303.661 58.8138 304.923 57.5512 304.923 55.6573V33.5618C304.923 31.6679 303.661 30.4053 301.767 30.4053H279.671C277.777 30.4053 276.515 31.6679 276.515 33.5618V55.6573C276.515 57.5512 277.777 58.8138 279.671 58.8138H301.767ZM345.958 58.8138C347.852 58.8138 349.114 57.5512 349.114 55.6573V33.5618C349.114 31.6679 347.852 30.4053 345.958 30.4053H323.862C321.968 30.4053 320.706 31.6679 320.706 33.5618V55.6573C320.706 57.5512 321.968 58.8138 323.862 58.8138H345.958ZM313.13 90.3789C272.096 90.3789 250 112.475 250 153.509V216.639C250 257.674 272.096 279.769 313.13 279.769C327.019 279.769 338.382 277.244 347.852 272.194V312.597H152.148V216.639H123.74V342.9C123.74 424.969 167.931 469.16 250 469.16C332.069 469.16 376.26 424.969 376.26 342.9V153.509C376.26 112.475 354.165 90.3789 313.13 90.3789ZM278.409 153.509C278.409 128.257 287.878 118.788 313.13 118.788C338.382 118.788 347.852 128.257 347.852 153.509V216.639H278.409V153.509Z" fill="#3C3731"/>
</svg>
