<svg width="500" height="500" viewBox="0 0 500 500" fill="none" xmlns="http://www.w3.org/2000/svg">
<rect width="500" height="500" fill="#7F7769"/>
<path d="M288.825 73.2358C247.79 73.2358 225.695 95.3314 225.695 136.366V174.244C180.873 174.875 148.045 208.334 148.045 253.157V426.765H176.453V253.157C176.453 224.117 197.286 202.653 225.695 202.653C226.958 241.793 249.053 262.626 288.825 262.626C329.86 262.626 351.955 240.531 351.955 199.496V136.366C351.955 95.3314 329.86 73.2358 288.825 73.2358ZM254.104 136.366C254.104 111.114 263.573 101.644 288.825 101.644C314.077 101.644 323.547 111.114 323.547 136.366V167.931H254.104V136.366Z" fill="#3C3731"/>
</svg>
