<svg width="500" height="500" viewBox="0 0 500 500" fill="none" xmlns="http://www.w3.org/2000/svg">
<rect width="500" height="500" fill="#7F7769"/>
<path d="M257.26 92.1719C216.225 92.1719 194.13 114.267 194.13 155.302V218.432C194.13 259.467 216.225 281.562 257.26 281.562C271.149 281.562 282.512 279.037 291.982 274.618C289.456 343.43 250.947 380.045 179.61 379.414V407.823C269.255 408.454 320.39 356.687 320.39 267.042V155.302C320.39 114.267 298.295 92.1719 257.26 92.1719ZM222.538 155.302C222.538 130.05 232.008 120.58 257.26 120.58C282.512 120.58 291.982 130.05 291.982 155.302V218.432H222.538V155.302Z" fill="#3C3731"/>
</svg>
