<svg width="500" height="500" viewBox="0 0 500 500" fill="none" xmlns="http://www.w3.org/2000/svg">
<rect width="500" height="500" fill="#7F7769"/>
<path d="M362.056 136.997C362.056 166.668 341.854 186.87 313.446 186.87C285.037 186.87 264.204 166.668 264.204 137.628V60.6094H235.796V136.997C235.796 166.668 215.594 186.87 187.186 186.87C158.777 186.87 137.944 166.668 137.944 137.628V60.6094H109.535V439.39H137.944V198.864C151.201 208.965 168.246 215.278 187.186 215.278C213.7 215.278 236.427 203.284 249.684 183.713C263.573 203.284 286.931 215.278 313.446 215.278C357.637 215.278 390.465 181.819 390.465 136.997V60.6094H362.056V136.997Z" fill="#3C3731"/>
</svg>
