<svg width="500" height="500" viewBox="0 0 500 500" fill="none" xmlns="http://www.w3.org/2000/svg">
<rect width="500" height="500" fill="#7F7769"/>
<path d="M410.982 246.959H89.0181V152.263H60.6095V310.089C60.6095 351.123 82.7051 373.219 123.74 373.219H376.26C417.295 373.219 439.391 351.123 439.391 310.089V152.263H410.982V246.959ZM241.793 407.94C241.793 406.047 240.531 404.784 238.637 404.784H216.541C214.647 404.784 213.385 406.047 213.385 407.94V430.036C213.385 431.93 214.647 433.193 216.541 433.193H238.637C240.531 433.193 241.793 431.93 241.793 430.036V407.94ZM260.732 404.784C258.838 404.784 257.576 406.047 257.576 407.94V430.036C257.576 431.93 258.838 433.193 260.732 433.193H282.828C284.722 433.193 285.984 431.93 285.984 430.036V407.94C285.984 406.047 284.722 404.784 282.828 404.784H260.732ZM238.637 445.819C236.743 445.819 235.48 447.081 235.48 448.975V471.071C235.48 472.965 236.743 474.227 238.637 474.227H260.732C262.626 474.227 263.889 472.965 263.889 471.071V448.975C263.889 447.081 262.626 445.819 260.732 445.819H238.637Z" fill="#3C3731"/>
</svg>
