<svg width="500" height="500" viewBox="0 0 500 500" fill="none" xmlns="http://www.w3.org/2000/svg">
<rect width="500" height="500" fill="#7F7769"/>
<path d="M376.26 215.87C376.26 133.801 319.443 89.6095 236.111 89.6095H187.501V118.018H236.111C305.555 118.018 342.801 151.477 347.852 215.87H264.52C174.875 215.87 123.74 252.485 123.74 342.13C123.74 424.199 167.931 468.391 250 468.391H313.13V342.13H152.78C152.78 267.637 190.658 244.278 264.52 244.278H376.26V215.87ZM254.419 261.955C254.419 260.061 253.156 258.798 251.263 258.798H229.167C227.273 258.798 226.011 260.061 226.011 261.955V284.05C226.011 285.944 227.273 287.207 229.167 287.207H251.263C253.156 287.207 254.419 285.944 254.419 284.05V261.955ZM298.61 261.955C298.61 260.061 297.348 258.798 295.454 258.798H273.358C271.464 258.798 270.202 260.061 270.202 261.955V284.05C270.202 285.944 271.464 287.207 273.358 287.207H295.454C297.348 287.207 298.61 285.944 298.61 284.05V261.955ZM273.358 328.242C275.252 328.242 276.515 326.979 276.515 325.085V302.99C276.515 301.096 275.252 299.833 273.358 299.833H251.263C249.369 299.833 248.106 301.096 248.106 302.99V325.085C248.106 326.979 249.369 328.242 251.263 328.242H273.358Z" fill="#3C3731"/>
</svg>
