<svg width="500" height="500" viewBox="0 0 500 500" fill="none" xmlns="http://www.w3.org/2000/svg">
<rect width="500" height="500" fill="#7F7769"/>
<path d="M280.618 50.6198C280.618 52.5137 281.881 53.7763 283.775 53.7763H305.87C307.764 53.7763 309.027 52.5137 309.027 50.6198V28.5242C309.027 26.6303 307.764 25.3677 305.87 25.3677H283.775C281.881 25.3677 280.618 26.6303 280.618 28.5242V50.6198ZM258.523 91.6544C258.523 93.5483 259.785 94.8109 261.679 94.8109H283.775C285.669 94.8109 286.931 93.5483 286.931 91.6544V69.5588C286.931 67.6649 285.669 66.4023 283.775 66.4023H261.679C259.785 66.4023 258.523 67.6649 258.523 69.5588V91.6544ZM302.714 91.6544C302.714 93.5483 303.976 94.8109 305.87 94.8109H327.966C329.86 94.8109 331.122 93.5483 331.122 91.6544V69.5588C331.122 67.6649 329.86 66.4023 327.966 66.4023H305.87C303.976 66.4023 302.714 67.6649 302.714 69.5588V91.6544ZM168.878 473.592C258.523 474.223 309.658 422.456 309.658 332.812V126.376H281.249V332.812C281.249 406.674 242.74 445.815 168.878 445.183V473.592Z" fill="#3C3731"/>
</svg>
