<svg width="500" height="500" viewBox="0 0 500 500" fill="none" xmlns="http://www.w3.org/2000/svg">
<rect width="500" height="500" fill="#7F7769"/>
<path d="M393.065 27.1616L153.802 111.125L162.64 135.746L401.903 51.7824L393.065 27.1616ZM223.245 244.961C201.781 244.961 187.261 231.072 187.261 210.239C187.261 194.457 196.099 186.25 232.083 174.255L420.211 111.125L411.373 83.9788L223.245 147.109C186.629 159.735 158.852 173.624 158.852 210.239C158.852 246.855 185.998 273.369 223.245 273.369H346.349C383.596 273.369 412.004 299.884 411.373 335.868V342.181H88.7777V247.486H60.3691V405.311C60.3691 446.346 82.4646 468.442 123.499 468.442H376.02C417.055 468.442 439.15 446.346 439.15 405.311V398.998L439.781 336.5C440.413 284.733 400.009 244.961 346.349 244.961H223.245Z" fill="#3C3731"/>
</svg>
