<svg width="500" height="500" viewBox="0 0 500 500" fill="none" xmlns="http://www.w3.org/2000/svg">
<rect width="500" height="500" fill="#7F7769"/>
<path d="M300.62 95.8043C282.313 49.088 216.657 49.088 198.981 95.8043L120.699 322.442C111.23 350.219 104.917 371.683 118.806 398.829C131.432 423.45 156.684 439.233 186.986 439.233C213.501 439.233 236.228 426.606 250.116 407.036C264.005 426.606 286.732 439.233 313.246 439.233C343.549 439.233 368.801 423.45 381.427 398.829C395.316 371.683 388.371 350.219 378.902 322.442L300.62 95.8043ZM347.968 396.935C339.13 405.142 327.135 410.193 313.246 410.193C284.838 410.193 264.636 389.991 264.636 360.32H235.596C235.596 389.991 215.395 410.193 186.986 410.193C172.466 410.193 160.471 405.142 151.633 396.304C131.432 374.208 139.638 350.219 149.739 321.81L225.496 105.905C234.334 83.1783 265.268 83.8096 274.106 105.905L350.493 321.81C360.594 350.219 369.432 374.208 347.968 396.935Z" fill="#3C3731"/>
</svg>
