<svg width="64" height="64" viewBox="0 0 64 64" fill="none" xmlns="http://www.w3.org/2000/svg">
<g clip-path="url(#clip0_175_79)">
<rect width="64" height="64" rx="16" fill="#8F8679"/>
<path d="M52.7378 30.1764H11.4214V18.0245H7.7758V38.2776C7.7758 43.5435 10.6112 46.3789 15.8771 46.3789H48.2821C53.548 46.3789 56.3834 43.5435 56.3834 38.2776V18.0245H52.7378V30.1764ZM30.6214 50.4295C30.3783 50.4295 30.2163 50.5916 30.2163 50.8346V53.67C30.2163 53.9131 30.3783 54.0751 30.6214 54.0751H33.4568C33.6999 54.0751 33.8619 53.9131 33.8619 53.67V50.8346C33.8619 50.5916 33.6999 50.4295 33.4568 50.4295H30.6214Z" fill="#3C3731"/>
</g>
<defs>
<clipPath id="clip0_175_79">
<rect width="64" height="64" rx="16" fill="white"/>
</clipPath>
</defs>
</svg>
